<svg width="360" height="116" viewBox="0 0 360 116" fill="none" xmlns="http://www.w3.org/2000/svg">
<path d="M5.88 115.2C4.36 115.2 3.08 114.64 2.04 113.52C1 112.48 0.48 111.2 0.48 109.68V30.6C0.48 29.08 1 27.8 2.04 26.76C3.08 25.72 4.36 25.2 5.88 25.2C7.4 25.2 8.68 25.72 9.72 26.76C10.84 27.8 11.4 29.08 11.4 30.6V33.72C17.24 27.64 24.08 24.6 31.92 24.6C36.88 24.6 41.56 25.88 45.96 28.44C50.44 30.92 54.04 34.6 56.76 39.48C59.56 44.28 60.96 49.92 60.96 56.4C60.96 62.88 59.56 68.56 56.76 73.44C54.04 78.24 50.44 81.92 45.96 84.48C41.56 86.96 36.88 88.2 31.92 88.2C24.08 88.2 17.24 85.16 11.4 79.08V109.68C11.4 111.28 10.88 112.6 9.84 113.64C8.8 114.68 7.48 115.2 5.88 115.2ZM30.36 78C36.28 78 41.04 76.12 44.64 72.36C48.24 68.6 50.04 63.28 50.04 56.4C50.04 49.52 48.24 44.2 44.64 40.44C41.04 36.68 36.28 34.8 30.36 34.8C26.68 34.8 23.2 35.64 19.92 37.32C16.72 38.92 13.88 41.08 11.4 43.8V69C13.88 71.72 16.72 73.92 19.92 75.6C23.2 77.2 26.68 78 30.36 78ZM87.3431 13.32C85.6631 13.32 84.2231 12.72 83.0231 11.52C81.8231 10.32 81.2231 8.87999 81.2231 7.2V6.72C81.2231 5.03999 81.8231 3.59999 83.0231 2.39999C84.2231 1.2 85.6631 0.599997 87.3431 0.599997H88.0631C89.7431 0.599997 91.1831 1.2 92.3831 2.39999C93.5831 3.59999 94.1831 5.03999 94.1831 6.72V7.2C94.1831 8.87999 93.5831 10.32 92.3831 11.52C91.1831 12.72 89.7431 13.32 88.0631 13.32H87.3431ZM87.5831 87.6C86.0631 87.6 84.7831 87.08 83.7431 86.04C82.7031 85 82.1831 83.72 82.1831 82.2V30.72C82.1831 29.2 82.7031 27.92 83.7431 26.88C84.7831 25.76 86.0631 25.2 87.5831 25.2C89.1831 25.2 90.5031 25.72 91.5431 26.76C92.5831 27.8 93.1031 29.12 93.1031 30.72V82.2C93.1031 83.72 92.5431 85 91.4231 86.04C90.3831 87.08 89.1031 87.6 87.5831 87.6ZM119.866 87.6C118.266 87.6 116.986 87.12 116.026 86.16C115.146 85.12 114.706 83.76 114.706 82.08C114.706 80.88 115.106 79.76 115.906 78.72L134.506 56.76L115.906 34.08C115.026 32.96 114.586 31.8 114.586 30.6C114.586 29 115.106 27.72 116.146 26.76C117.186 25.72 118.466 25.2 119.986 25.2C121.906 25.2 123.346 25.88 124.306 27.24L141.106 48L157.786 27.24C158.746 25.88 160.146 25.2 161.986 25.2C163.586 25.2 164.906 25.72 165.946 26.76C166.986 27.72 167.506 28.92 167.506 30.36C167.506 31.56 167.106 32.68 166.306 33.72L147.346 56.04L166.066 78.6C166.946 79.56 167.386 80.72 167.386 82.08C167.386 83.6 166.906 84.92 165.946 86.04C164.986 87.08 163.626 87.6 161.866 87.6C160.106 87.6 158.706 86.88 157.666 85.44L140.626 65.04L124.546 85.2C123.346 86.8 121.786 87.6 119.866 87.6ZM209.868 88.2C205.468 88.2 201.628 87.16 198.348 85.08C195.148 83 192.668 80.16 190.908 76.56C189.228 72.96 188.388 69 188.388 64.68V30.6C188.388 29.08 188.908 27.8 189.948 26.76C191.068 25.72 192.388 25.2 193.908 25.2C195.428 25.2 196.708 25.72 197.748 26.76C198.788 27.8 199.308 29.08 199.308 30.6V63.48C199.308 73.24 203.708 78.12 212.508 78.12C216.508 78.12 220.068 77.08 223.188 75C226.388 72.92 229.388 70.12 232.188 66.6V30.6C232.188 29.08 232.708 27.8 233.748 26.76C234.868 25.72 236.188 25.2 237.708 25.2C239.228 25.2 240.508 25.72 241.548 26.76C242.588 27.8 243.108 29.08 243.108 30.6V82.08C243.108 83.6 242.588 84.92 241.548 86.04C240.508 87.08 239.228 87.6 237.708 87.6C236.188 87.6 234.868 87.08 233.748 86.04C232.708 84.92 232.188 83.6 232.188 82.08V77.16C229.148 80.52 225.868 83.2 222.348 85.2C218.828 87.2 214.668 88.2 209.868 88.2ZM273.513 87.6C271.993 87.6 270.713 87.08 269.673 86.04C268.633 85 268.113 83.72 268.113 82.2V30.72C268.113 29.2 268.633 27.92 269.673 26.88C270.713 25.76 271.993 25.2 273.513 25.2C275.033 25.2 276.313 25.76 277.353 26.88C278.473 27.92 279.033 29.2 279.033 30.72V35.64C281.273 32.44 283.953 29.8 287.073 27.72C290.273 25.64 294.393 24.6 299.433 24.6C303.913 24.6 307.753 25.8 310.953 28.2C314.153 30.6 316.433 33.52 317.793 36.96C322.753 28.72 330.113 24.6 339.873 24.6C344.353 24.6 348.073 25.72 351.033 27.96C354.073 30.2 356.313 33.08 357.753 36.6C359.193 40.12 359.913 43.8 359.913 47.64V82.2C359.913 83.72 359.353 85 358.233 86.04C357.193 87.08 355.913 87.6 354.393 87.6C352.873 87.6 351.593 87.08 350.553 86.04C349.513 85 348.993 83.72 348.993 82.2V49.8C348.993 44.6 348.073 40.8 346.233 38.4C344.393 35.92 341.233 34.68 336.753 34.68C332.673 34.68 329.273 35.76 326.553 37.92C323.913 40 321.553 42.76 319.473 46.2V82.2C319.473 83.72 318.913 85 317.793 86.04C316.753 87.08 315.473 87.6 313.953 87.6C312.433 87.6 311.153 87.08 310.113 86.04C309.073 85 308.553 83.72 308.553 82.2V49.8C308.553 44.6 307.633 40.8 305.793 38.4C303.953 35.92 300.793 34.68 296.313 34.68C292.233 34.68 288.833 35.76 286.113 37.92C283.473 40 281.113 42.76 279.033 46.2V82.2C279.033 83.72 278.473 85 277.353 86.04C276.313 87.08 275.033 87.6 273.513 87.6Z" fill="#66FCF1"/>
</svg>
